<svg xmlns="http://www.w3.org/2000/svg" viewBox="0 0 188 190" height="53.622mm" width="53.058mm">
    <style>
        .eye {
            animation: color-change 0.5s infinite;
        }

        .hand {
            transform-origin: 100% 90%;
            animation: shake 1s infinite;
        }

        @keyframes color-change {
            0% { fill: red; }
            50% { fill: blue; }
            100% { fill: red; }
        }

        @keyframes shake {
            0% { transform: rotate(12deg); }
            50% { transform: rotate(-12deg); }
            100% { transform: rotate(12deg); }
        }
    </style>
    <path fill="#e8d900" d="M56.41 167.321c-1.68 4.903-1.159 14.602 2.502 14.464 6.157-.233 5.348 2.055 11.427 2.144 4.656.068 4.555-3.125 4.555-12.59zm49.734 7.411c-.832 6.826-.895 12.231 5.177 12.231 7.054 0 4.019-1.766 11.697-2.141 5.199-.254 5.535-3.573 4.463-13.305z" /><path class="hand" d="M29.793 78.872c-3.297.167-6.613 6.593-6.418 12.288.536 15.625 11.874 26.428 25.267 26.696 9.373.187 2.974-18.373-.714-17.32-4.375 1.25-7.273 1.351-9.91-6.698-1.56-4.759-5.501-15.104-8.225-14.966z"/><path fill="#fff" d="M99.808 38.236c9.437.015 14.012 2.393 20.874 8.089 11.554 9.589 10.475 16.456 13.351 33.489 5.149 30.5 4.101 88.864 4.101 88.864-5.576 2.585-13.052 2.996-21.58 5.53-13.568 4.032-26.425-1.472-39.844-1.885-5.431-.167-13.118-.432-19.178-3.84-6.06-3.408-10.762-9.765-10.387-23.327.821-29.659.584-32.616-1.045-43.12-.67-4.321.145-11.427 1.147-18.534 1.002-7.107 1.885-14.228 2.206-19.268.651-10.232 8.227-21.408 33.802-24.64 6.97-.881 12.263-1.364 16.553-1.358z"/><path d="M140.16 101.696c-8.214-.446-11.242 4.733-21.071 3.393-6.894-.94-6.071 9.823.893 11.519 5.465 1.331 13.124-.446 19.999-.982 4.195-.327 6.047-13.611.179-13.93z"/><path  d="M99.22 17.757c-5.65.176-11.714 1.119-18.078 2.997-24.621 7.27-34.473 29.131-33.798 44.717.187 4.313-.892 11.266-1.873 18.225-.981 6.958-1.886 13.916-1.109 18.922 1.581 10.195 1.781 12.594.982 41.462-.386 13.953 4.867 21.59 11.629 25.393 6.761 3.802 14.767 3.956 20.045 4.118 12.276.377 25.353 5.99 39.742 1.714 7.52-2.235 15.541-.963 22.175-4.037 12.376-5.736 18.761-18.114 21.576-32.518 2.815-14.405 2.159-30.994.367-45.842-3.461-28.675-18.536-51.56-25.141-60.611-6.345-8.693-19.565-15.068-36.517-14.541zm20.719 30.144c11.253 9.34 10.203 16.028 13.003 32.619 5.015 29.708 3.995 86.555 3.995 86.555-5.431 2.517-12.714 2.918-21.021 5.386-13.216 3.927-25.737-1.434-38.807-1.836-5.29-.163-12.778-.42-18.681-3.74-5.902-3.319-10.483-9.512-10.117-22.722.8-28.888.57-31.768-1.017-42-.653-4.208.141-11.13 1.117-18.053s1.835-13.858 2.148-18.768c.634-9.966 8.013-20.852 32.923-24.001 21.725-2.746 26.734-1.512 36.457 6.558z"/><circle r="7.914" cy="58.036" cx="69.982" /><path fill="#fff" d="M70.088 54.465l-3.676 3.678 3.463 3.465 3.678-3.678-3.465-3.465z"/><circle r="12.087" cy="59.554" cx="110.607" /><circle fill="#fff" r="7.875" cy="59.554" cx="110.607"/><circle class="eye" fill="#00f" r="4.186" cy="59.911" cx="111.054"/><path fill="#fff" d="M110.071 58.884h1.964v2.054h-1.964z"/><path fill="#f2f2f2" d="M82.806 85.216c-.885-.686-.979-2.008-3.21-3.351-1.322-.796-2.244-2.331-2.415-3.301-.173-.981-4.572-4.1 3.036-1.607 3.817 1.251 6 3.771 6.429 5.089.58 1.786-.63 2.55.446 3.705.744.799 1.868 2.08 0 4.152-2.455 2.723-4.598 4.056-7.009 3.884-3.75-.268-1.633-.468.134-2.188 2.375-2.311 2.679-3.348 2.946-4.241.268-.893 1.206-.932-.357-2.143z"/><path fill="#e8d900" d="M85.655 85.158c-1.105-.856-1.133-2.238-3.918-3.915-1.651-.994-2.801-2.954-3.015-4.166-.216-1.225-5.975-4.895 3.522-1.783 4.766 1.562 8.696 4.44 9.231 6.086.725 2.229-.519 3.049.825 4.492.929.997 1.305 2.686-1.027 5.272-3.065 3.4-6.274 4.331-9.284 4.116-4.682-.334-1.806-1.142.489-3.065 3.171-2.657 3.155-3.158 3.489-4.272.334-1.115 1.639-1.253-.312-2.764z"/>
</svg>